<svg xmlns="http://www.w3.org/2000/svg" width="288" height="27.14" viewBox="0 0 288 27.14"><title>logo-TT-whiteAsset 3</title><polygon points="0.6 0 0 6.88 10.13 6.88 8.36 27.14 15.24 27.14 17.01 6.88 27.14 6.88 27.75 0 0.6 0" style="fill:#fff"/><polygon points="95.17 0 94.57 6.88 104.7 6.88 102.93 27.14 109.81 27.14 111.58 6.88 121.71 6.88 122.31 0 95.17 0" style="fill:#fff"/><path d="M51.33.0H37.82a8.85 8.85.0 00-8.64 7.94l-1 11.26a7.17 7.17.0 007.25 7.94H49a8.85 8.85.0 008.64-7.94l1-11.26A7.16 7.16.0 0051.33.0zm-.62 19.2a1.18 1.18.0 01-1.16 1.06H36a1 1 0 01-1-1.06l1-11.26a1.19 1.19.0 011.15-1.06H50.72a1 1 0 011 1.06z" style="fill:#fff"/><path d="M85.1.0H63.65L61.27 27.14h6.88l.59-6.75H83.32A8.84 8.84.0 0092 12.45l.4-4.51A7.17 7.17.0 0085.1.0zm0 12.45a1.19 1.19.0 01-1.15 1.06H69.35l.58-6.63H84.5a1 1 0 011 1.06z" style="fill:#fff"/><path d="M144.92 20.39h.31a8.85 8.85.0 008.64-7.94l.4-4.51A7.17 7.17.0 00147 0H125.57l-2.38 27.14h6.88l.84-9.56 11.39 9.56H153zM131.84 6.88h14.58a1 1 0 011 1.06l-.4 4.51a1.19 1.19.0 01-1.15 1.06H131.26z" style="fill:#fff"/><path d="M213 19.2a1.18 1.18.0 01-1.16 1.06H198.28a1 1 0 01-1-1.06l1-11.26a1.19 1.19.0 011.15-1.06H213a1 1 0 011 1.06l-.2 2.19h6.88l.2-2.19A7.17 7.17.0 00213.57.0H200.06a8.85 8.85.0 00-8.64 7.94l-1 11.26a7.17 7.17.0 007.25 7.94h13.51a8.85 8.85.0 008.64-7.94L220 17h-6.88z" style="fill:#fff"/><path d="M233.33.0a8.85 8.85.0 00-8.64 7.94l-1 11.26A7.16 7.16.0 00231 27.14h21.46l.6-6.88h-21.5a1 1 0 01-1-1.06l.19-2.19h15.64l.6-6.88H231.38l.19-2.19a1.19 1.19.0 011.16-1.06h21.45l.6-6.88z" style="fill:#fff"/><path d="M278.62 20.39h.32a8.86 8.86.0 008.64-7.94L288 7.94A7.17 7.17.0 00280.72.0H259.27l-2.38 27.14h6.88l.84-9.56L276 27.14h10.66zM265.55 6.88h14.57a1 1 0 011 1.06l-.39 4.51a1.19 1.19.0 01-1.16 1.06H265z" style="fill:#fff"/><path d="M156.47 27.14h6.88l.59-6.75h15.63L179 27.14h6.88l1.68-19.2A7.16 7.16.0 00180.29.0h-13.5a8.85 8.85.0 00-8.64 7.94zM165 7.94a1.19 1.19.0 011.15-1.06h13.51a1 1 0 011 1.06l-.39 4.51-.09 1.06H164.54z" style="fill:#fff"/></svg>