<svg xmlns="http://www.w3.org/2000/svg" width="360" height="44.91" viewBox="0 0 360 44.91"><title>logo-TG-wordmark-whiteAsset 3</title><path d="M331.48 41.68v0a3.23 3.23.0 116.46.0v0a3.23 3.23.0 11-6.46.0zm6 0v0a2.74 2.74.0 10-5.48.0v0a2.74 2.74.0 105.48.0zm-4-1.68h1.51c.75.0 1.3.34 1.3 1.07a1 1 0 01-.71 1l.82 1.16h-.94l-.7-1h-.5v1h-.78zm1.46 1.57c.36.0.55-.18.55-.44s-.21-.45-.55-.45h-.68v.89z" style="fill:#fff"/><polygon points="1 0 0 11.38 16.76 11.38 13.83 44.91 25.21 44.91 28.14 11.38 44.91 11.38 45.9 0 1 0" style="fill:#fff"/><path d="M251.7.0H229.35a14.64 14.64.0 00-14.29 13.14l-1.63 18.62a11.86 11.86.0 0012 13.15h22.35a14.66 14.66.0 0014.29-13.15l1.63-18.62A11.86 11.86.0 00251.7.0zm-1 31.76a2 2 0 01-1.92 1.76H226.41a1.58 1.58.0 01-1.6-1.76l1.63-18.62a2 2 0 011.91-1.76H250.7a1.59 1.59.0 011.61 1.76z" style="fill:#fff"/><path d="M84.91.0H62.56A14.64 14.64.0 0048.27 13.14L46.64 31.76a11.87 11.87.0 0012 13.15H81A14.65 14.65.0 0095.27 31.76L96.9 13.14A11.86 11.86.0 0084.91.0zm-1 31.76A2 2 0 0182 33.52H59.63A1.59 1.59.0 0158 31.76l1.63-18.62a2 2 0 011.91-1.76H83.91a1.59 1.59.0 011.61 1.76z" style="fill:#fff"/><polygon points="283.64 0 272.26 0 268.33 44.91 309.51 44.91 310.51 33.52 280.71 33.52 283.64 0" style="fill:#fff"/><path d="M140.78.0H105.29l-3.93 44.91h11.38l1-11.18h24.11a14.64 14.64.0 0014.29-13.14l.65-7.45A11.85 11.85.0 00140.78.0zm0 20.59a2 2 0 01-1.91 1.76H114.72l1-11h24.11a1.58 1.58.0 011.6 1.76z" style="fill:#fff"/><path d="M195.29 26.19l-.48 5.57a2 2 0 01-1.91 1.76H170.54a1.58 1.58.0 01-1.6-1.76l1.63-18.62a2 2 0 011.91-1.76H208L209 0H173.47a14.65 14.65.0 00-14.29 13.14l-1.63 18.62a11.87 11.87.0 0012 13.15h28a8.4 8.4.0 008.19-7.54l1.63-18.75h-21.1l9 7.57" style="fill:#fff"/><polygon points="359 11.38 360 0 318.82 0 314.89 44.91 326.27 44.91 327.58 30.01 353.65 30.01 354.65 18.62 328.57 18.62 329.21 11.38 359 11.38" style="fill:#fff"/></svg>