<svg xmlns="http://www.w3.org/2000/svg" width="532.43" height="100.43" viewBox="0 0 532.43 100.43"><title>teg-ss-logo-registered-vertical-tab-alt-whiteAsset 1</title><polygon points="113.52 9.38 127.33 9.38 124.92 37 134.29 37 136.71 9.38 150.52 9.38 151.34 0 114.34 0 113.52 9.38" style="fill:#fff"/><path d="M320.93.0H302.51a12.06 12.06.0 00-11.77 10.83L289.4 26.18A9.76 9.76.0 00299.28 37h18.41a12.06 12.06.0 0011.78-10.82l1.34-15.35A9.77 9.77.0 00320.93.0zm-.84 26.18a1.62 1.62.0 01-1.58 1.45H300.1a1.31 1.31.0 01-1.32-1.45l1.34-15.35a1.61 1.61.0 011.57-1.45h18.42a1.31 1.31.0 011.32 1.45z" style="fill:#fff"/><path d="M183.49.0H165.07A12.06 12.06.0 00153.3 10.83L152 26.18A9.77 9.77.0 00161.83 37h18.42A12.07 12.07.0 00192 26.18l1.34-15.35A9.78 9.78.0 00183.49.0zm-.84 26.18a1.62 1.62.0 01-1.58 1.45H162.65a1.31 1.31.0 01-1.32-1.45l1.34-15.35a1.62 1.62.0 011.58-1.45h18.42A1.31 1.31.0 01184 10.83z" style="fill:#fff"/><polygon points="347.26 0 337.88 0 334.64 37 368.57 37 369.39 27.63 344.84 27.63 347.26 0" style="fill:#fff"/><path d="M229.53.0H200.29l-3.24 37h9.38l.8-9.2H227.1A12.08 12.08.0 00238.88 17l.53-6.14A9.78 9.78.0 00229.53.0zm0 17a1.62 1.62.0 01-1.58 1.45h-19.9l.79-9h19.87A1.31 1.31.0 01230 10.83z" style="fill:#fff"/><path d="M244.7 10.83l-1.35 15.35A9.77 9.77.0 00253.23 37h23A6.92 6.92.0 00283 30.8l1.35-15.45H267l7.43 6.23-.39 4.6a1.62 1.62.0 01-1.58 1.45H254.05a1.31 1.31.0 01-1.32-1.45l1.35-15.35a1.61 1.61.0 011.57-1.45H284.9L285.72.0H256.47A12.06 12.06.0 00244.7 10.83z" style="fill:#fff"/><polygon points="409.36 9.38 410.18 0 376.25 0 373.01 37 382.39 37 383.46 24.73 404.95 24.73 405.77 15.35 384.28 15.35 384.8 9.38 409.36 9.38" style="fill:#fff"/><path d="M389.28 31.65A2.68 2.68.0 10392 34.33 2.68 2.68.0 00389.28 31.65zm0 4.88a2.21 2.21.0 112.21-2.2A2.21 2.21.0 01389.28 36.53z" style="fill:#fff"/><path d="M390 34.76c.37.0.58-.17.58-.55v-.45a.52.52.0 00-.58-.57h-1.94v2.27h.55v-1.1l1.29 1.1h.69l-.8-.7zm-1.39-1H390c.06.0.09.0.09.1v.39a.08.08.0 01-.09.09h-1.33z" style="fill:#fff"/><path d="M528.68 92.93a3.75 3.75.0 103.75 3.75 3.75 3.75.0 00-3.75-3.75zm0 6.84a3.09 3.09.0 113.09-3.09A3.09 3.09.0 01528.68 99.77z" style="fill:#fff"/><path d="M529.7 97.29c.52.0.81-.24.81-.77v-.63a.73.73.0 00-.81-.8H527v3.18h.77V96.72l1.8 1.55h1l-1.11-1zm-1.94-1.47h1.86c.08.0.12.05.12.13v.55c0 .09.0.13-.12.13h-1.86z" style="fill:#fff"/><path d="M287.47 92.93h35.08a2.13 2.13.0 002.35-2.14l.73-8.24c.14-1.47-.46-2.14-2-2.14H298.38c-6.29.0-9.77-3.21-9.24-9.51l.67-7.63c.54-6.29 4.29-9.71 10.58-9.71H336l-.67 7.5H300.26a2.18 2.18.0 00-2.41 2.14L297.18 71c-.14 1.54.46 2.14 2 2.14h25.25c6.29.0 9.77 3.29 9.24 9.51l-.67 8.1c-.6 6.3-4.35 9.71-10.65 9.71H286.8z" style="fill:#fff"/><path d="M344.85 90.72l3.22-37.16h8l-3.21 37.16c-.2 1.54.4 2.21 1.94 2.21h25.78A2.23 2.23.0 00383 90.72l3.21-37.16h8L391 90.72c-.61 6.3-4.36 9.71-10.65 9.71H354C347.67 100.43 344.25 97 344.85 90.72z" style="fill:#fff"/><path d="M406.86 53.56h8l-4.16 46.87h-8z" style="fill:#fff"/><path d="M442.68 61.06H423.8l.67-7.5h45.8l-.67 7.5H450.72l-3.48 39.37h-8z" style="fill:#fff"/><path d="M476.23 90.72l2.35-27.45c.6-6.29 4.35-9.71 10.64-9.71h34.49l-.67 7.5H489a2.22 2.22.0 00-2.41 2.14l-.8 9.91h28.46l-.67 7.17H485.14l-.87 10.44c-.14 1.54.47 2.21 1.94 2.21h34l-.67 7.5H485.41C479.11 100.43 475.7 97 476.23 90.72z" style="fill:#fff"/><path d="M.67 92.93H35.76a2.12 2.12.0 002.34-2.14l.74-8.24c.13-1.47-.47-2.14-2-2.14H11.58c-6.29.0-9.77-3.21-9.24-9.51L3 63.27c.55-6.27 4.3-9.71 10.59-9.71H49.22l-.67 7.5H13.46a2.18 2.18.0 00-2.41 2.14L10.38 71c-.14 1.54.47 2.14 2 2.14H37.63c6.3.0 9.78 3.29 9.24 9.51l-.67 8.1c-.6 6.3-4.35 9.71-10.64 9.71H0z" style="fill:#fff"/><path d="M120.93 53.56l-3.21 37.16c-.61 6.3-4.35 9.71-10.65 9.71H94.15c-3.08.0-5.43-.87-6.9-2.47a10 10 0 01-7.16 2.47H67.16c-6.29.0-9.71-3.41-9.1-9.71l3.21-37.16h8L66.09 90.72c-.2 1.54.4 2.21 1.94 2.21h13.6A2.27 2.27.0 0084 90.72l3.21-37.16H95L91.74 90.72c-.2 1.54.4 2.21 1.94 2.21h13.59a2.27 2.27.0 002.41-2.21l3.22-37.16z" style="fill:#fff"/><path d="M133.52 53.56h8l-4.15 46.87h-8z" style="fill:#fff"/><path d="M154.55 53.56h7.56L189 89.12l3.15-35.56h8L196 100.43h-7.63L161.58 64.81l-3.15 35.62h-8z" style="fill:#fff"/><path d="M222.25 61.06h36.29l.67-7.5H222.45c-6.3.0-10.11 3.42-10.65 9.71l-2.34 27.45c-.54 6.3 2.88 9.71 9.17 9.71h26.72c6.29.0 10-3.41 10.58-9.71l1.47-17.2H233.29l8.3 7h7.17l-.87 10.24a2.23 2.23.0 01-2.41 2.21h-26c-1.47.0-2-.67-1.94-2.21l2.35-27.52A2.18 2.18.0 01222.25 61.06z" style="fill:#fff"/></svg>